# AST/ASF file generated using VICON BodyLanguage
# -----------------------------------------------
:version 1.10
:name VICON
:units
  mass 1.0
  length 0.45
  angle deg
:documentation
   .ast/.asf automatically generated from VICON data using
   VICON BodyBuilder and BodyLanguage model FoxedUp or BRILLIANT.MOD
:root
   order TX TY TZ RX RY RZ
   axis XYZ
   position 0 0 0  
   orientation 0 0 0 
:bonedata
  begin
     id 1 
     name lhipjoint
     direction 0.578396 -0.714046 0.394458 
     length 2.21935 
     axis 0 0 0  XYZ
  end
  begin
     id 2 
     name lfemur
     direction 0.34202 -0.939693 0  
     length 6.39105  
     axis 0 0 20  XYZ
    dof rx ry rz
    limits (-160.0 20.0)
           (-70.0 70.0)
           (-60.0 70.0)
  end
  begin
     id 3 
     name ltibia
     direction 0.34202 -0.939693 0   
     length 6.99037   
     axis 0 0 20   XYZ
    dof rx
    limits (-10.0 170.0)
  end
  begin
     id 4 
     name lfoot
     direction 0.0582372 -0.160005 0.985397   
     length 2.06111   
     axis -90 7.62852e-016 20   XYZ
    dof rx rz
    limits (-45.0 90.0)
           (-70.0 20.0)
  end
  begin
     id 5 
     name ltoes
     direction 1.53556e-011 -4.21875e-011 1   
     length 1.04074   
     axis -90 7.62852e-016 20   XYZ
    dof rx
    limits (-90.0 20.0)
  end
  begin
     id 6 
     name rhipjoint
     direction -0.558179 -0.726269 0.40121   
     length 2.182  
     axis 0 0 0  XYZ 
  end
  begin
     id 7 
     name rfemur
     direction -0.34202 -0.939693 0   
     length 6.51172   
     axis 0 0 -20   XYZ
    dof rx ry rz
    limits (-160.0 20.0)
           (-70.0 70.0)
           (-70.0 60.0)
  end
  begin
     id 8 
     name rtibia
     direction -0.34202 -0.939693 0   
     length 7.02607   
     axis 0 0 -20   XYZ
    dof rx
    limits (-10.0 170.0)
 end
 begin
     id 9 
     name rfoot
     direction -0.0788856 -0.216737 0.973038   
     length 1.96734  
     axis -90 -7.62852e-016 -20   XYZ
    dof rx rz
    limits (-45.0 90.0)
           (-20.0 70.0)
  end
  begin
     id 10 
     name rtoes
     direction -1.53567e-011 -4.21783e-011 1   
     length 0.990825   
     axis -90 -7.62852e-016 -20   XYZ
    dof rx
    limits (-90.0 20.0)
  end
  begin
     id 11 
     name lowerback
     direction 0.00668177 0.999323 -0.0361741   
     length 1.7655   
     axis 0 0 0   XYZ
    dof rx ry rz
    limits (-20.0 45.0)
           (-30.0 30.0)
           (-30.0 30.0)
  end
  begin
     id 12 
     name upperback
     direction -0.00222086 0.99851 0.0545167   
     length 1.74912   
     axis 0 0 0   XYZ
    dof rx ry rz
    limits (-20.0 45.0)
           (-30.0 30.0)
           (-30.0 30.0)
  end
  begin
     id 13 
     name thorax
     direction -0.00733971 0.997496 0.0703443   
     length 1.75715   
     axis 0 0 0   XYZ
    dof rx ry rz
    limits (-20.0 45.0)
           (-30.0 30.0)
           (-30.0 30.0)
  end
  begin
     id 14 
     name lowerneck
     direction 0.0279797 0.994795 0.0979765   
     length 1.46939   
     axis 0 0 0   XYZ
    dof rx ry rz
    limits (-20.0 45.0)
           (-30.0 30.0)
           (-30.0 30.0)
  end
  begin
     id 15 
     name upperneck
     direction 0.00339187 0.976776 -0.214238   
     length 1.48018   
     axis 0 0 0   XYZ
    dof rx ry rz
    limits (-20.0 45.0)
           (-30.0 30.0)
           (-30.0 30.0)
  end
  begin
     id 16
     name head
     direction -0.00263506 0.996603 -0.0823096  
     length 1.4976  
     axis 0 0 0   XYZ
    dof rx ry rz
    limits (-20.0 45.0)
           (-30.0 30.0)
           (-30.0 30.0)
  end
  begin
     id 17 
     name lclavicle
     direction 0.894044 0.44508 -0.0508781  
     length 3.03024  
     axis 0 0 0   XYZ
    dof ry rz
    limits (-20.0 10.0)
           (0.0 20.0)
  end
  begin
     id 18 
     name lhumerus
     direction 1 -4.48961e-011 -2.39475e-018   
     length 4.4661   
     axis 180 -30 -90   XYZ
    dof rx ry rz
    limits (-60.0 90.0)
           (-90.0 90.0)
           (-90.0 90.0)
  end
  begin
     id 19
     name lradius
     direction 1 -4.48961e-011 9.29328e-028   
     length 3.41414   
     axis 180 -30 -90   XYZ
    dof rx
    limits (-10.0 170.0)
  end
  begin
     id 20
     name lwrist
     direction 1 -4.48985e-011 1.53461e-026   
     length 1.70707   
     axis -1.09697e-014 90 90   XYZ
    dof ry
    limits (-180.0 0.0)
 end
  begin
     id 21 
     name lhand
     direction 1 -4.48966e-011 3.06923e-026   
     length 0.328298   
     axis -1.95843e-014 90 90   XYZ
    dof rx rz
    limits (-90.0 90.0)
           (-45.0 45.0)
  end
  begin
     id 22 
     name lfingers
     direction 1 -4.48893e-011 6.13845e-026   
     length 0.264682   
     axis -3.91686e-014 90 90   XYZ
    dof rx
    limits (0.0 90.0)
  end
  begin
     id 23
     name lthumb
     direction 0.707107 -6.34876e-011 0.707107   
     length 0.380032   
     axis -90 45 2.85299e-015   XYZ
    dof rx rz
    limits (-45.0 45.0)
           (-45.0 45.0)
  end
  begin
     id 24 
     name rclavicle
     direction -0.936955 0.347862 -0.0332887   
     length 3.26927  
     axis 0 0 0   XYZ 
    dof ry rz
    limits (-10.0 20.0)
           (-20.0 0.0)
  end
  begin
     id 25 
     name rhumerus
     direction -1 -4.4896e-011 1.78637e-018  
     length 4.40431   
     axis 180 30 90   XYZ
    dof rx ry rz
    limits (-90.0 60.0)
           (-90.0 90.0)
           (-90.0 90.0)
  end
  begin
     id 26 
     name rradius
     direction -1 -4.48955e-011 9.34036e-027   
     length 3.04688   
     axis 180 30 90   XYZ
    dof rx
    limits (-10.0 170.0)
  end
  begin
     id 27 
     name rwrist
     direction -1 -4.49011e-011 1.53461e-026   
     length 1.52344   
     axis -1.09697e-014 -90 -90   XYZ
    dof ry
    limits (-180.0 0.0)
  end
  begin
     id 28
     name rhand
     direction -1 -4.48834e-011 3.06923e-026   
     length 0.500489   
     axis -1.95843e-014 -90 -90   XYZ
    dof rx rz
    limits (-90.0 90.0)
           (-45.0 45.0)
  end
  begin
     id 29
     name rfingers
     direction -1 -4.48967e-011 6.13845e-026   
     length 0.403507   
     axis -3.91686e-014 -90 -90   XYZ
    dof rx
    limits (0.0 90.0)
  end
  begin
     id 30
     name rthumb
     direction -0.707107 -6.34826e-011 0.707107   
     length 0.579358   
     axis -90 -45 -2.85299e-015   XYZ
    dof rx rz
    limits (-45.0 45.0)
           (-45.0 45.0)
  end
:hierarchy
  begin
    root lhipjoint rhipjoint lowerback
    lhipjoint lfemur
    lfemur ltibia
    ltibia lfoot
    lfoot ltoes
    rhipjoint rfemur
    rfemur rtibia
    rtibia rfoot
    rfoot rtoes
    lowerback upperback
    upperback thorax
    thorax lowerneck lclavicle rclavicle
    lowerneck upperneck
    upperneck head
    lclavicle lhumerus
    lhumerus lradius
    lradius lwrist
    lwrist lhand lthumb
    lhand lfingers
    rclavicle rhumerus
    rhumerus rradius
    rradius rwrist
    rwrist rhand rthumb
    rhand rfingers
  end

#!OML:ASF H:\IndianDance\Patient Classification 1\Patient 1\Session 1\dancer.ASF
:FULLY-SPECIFIED
:DEGREES
1491
root 4.15817 14.5506 3.12888 -172.419 4.41303 -183.598
lowerback 9.45736 3.91449 1.87818
upperback -4.11568 5.51759 -8.56559
thorax -8.71916 2.58245 -11.4113
lowerneck -21.1131 2.10438 -2.09554
upperneck 28.9112 -4.22231 17.3369
head 13.9379 -0.532473 6.47035
rclavicle 5.04913e-014 -1.62208e-013
rhumerus -37.5823 59.244 -87.6221
rradius 99.4406
rwrist -81.4484
rhand 14.9849 -2.57499
rfingers 7.12502
rthumb 39.8375 -27.8499
lclavicle 5.04913e-014 -1.62208e-013
lhumerus -26.9637 -66.1761 64.7082
lradius 99.4589
lwrist 73.2769
lhand -4.10406 385.62
lfingers 7.12502
lthumb 21.654 54.4289
rfemur -64.2165 -31.5697 24.1703
rtibia 50.6476
rfoot -18.5759 -16.4563
rtoes 9.83967
lfemur -34.2724 29.5816 -34.9631
ltibia 53.7319
lfoot -26.716 11.2476
ltoes 7.15476
1492
root 4.14997 14.5759 3.11 -172.302 4.37501 -183.826
lowerback 9.28437 3.86253 1.76704
upperback -4.13876 5.46055 -8.75758
thorax -8.64828 2.57452 -11.5424
lowerneck -21.1076 2.08137 -2.20309
upperneck 29.0083 -4.29334 17.4411
head 13.9942 -0.570421 6.52966
rclavicle -2.66371e-014 -2.06736e-014
rhumerus -37.5947 59.4855 -87.8193
rradius 99.5262
rwrist -81.4242
rhand 14.8785 -2.52656
rfingers 7.12502
rthumb 39.7372 -27.8313
lclavicle -2.66371e-014 -2.06736e-014
lhumerus -27.1751 -66.147 64.6814
lradius 99.5049
lwrist 73.5422
lhand -3.50244 385.182
lfingers 7.12502
lthumb 22.2317 53.9237
rfemur -63.8837 -31.7077 24.4955
rtibia 48.8968
rfoot -18.9555 -17.0587
rtoes 9.68449
lfemur -33.9954 29.4667 -35.2327
ltibia 53.14
lfoot -26.4254 11.1778
ltoes 6.96313
1493
root 4.14356 14.6008 3.09006 -172.213 4.34497 -184.062
lowerback 9.13378 3.81746 1.63004
upperback -4.15981 5.41073 -8.94394
thorax -8.58962 2.57134 -11.6561
lowerneck -21.1037 2.05154 -2.31154
upperneck 29.1163 -4.37521 17.5386
head 14.0573 -0.61423 6.58559
rclavicle -6.75868e-015 0
rhumerus -37.6446 59.6774 -88.0537
rradius 99.607
rwrist -81.386
rhand 14.8096 -2.47446
rfingers 7.12502
rthumb 39.6724 -27.7985
lclavicle -6.75868e-015 0
lhumerus -27.4093 -66.1395 64.7059
lradius 99.5117
lwrist 73.7695
lhand -2.99403 384.709
lfingers 7.12502
lthumb 22.7197 53.391
rfemur -63.4868 -31.846 24.8198
rtibia 47.2211
rfoot -19.332 -17.7112
rtoes 9.40302
lfemur -33.6765 29.3795 -35.4808
ltibia 52.5458
lfoot -26.1329 11.0747
ltoes 6.77261
1494
root 4.13896 14.6256 3.06935 -172.153 4.32637 -184.308
lowerback 9.00889 3.7814 1.4641
upperback -4.17743 5.37062 -9.12581
thorax -8.5431 2.57438 -11.7522
lowerneck -21.0968 2.01274 -2.4242
upperneck 29.2257 -4.46764 17.6313
head 14.1221 -0.663987 6.6387
rclavicle -4.05521e-014 1.35174e-013
rhumerus -37.7298 59.8174 -88.3147
rradius 99.6915
rwrist -81.3488
rhand 14.7679 -2.41293
rfingers 7.12502
rthumb 39.6331 -27.7486
lclavicle -4.05521e-014 1.35174e-013
lhumerus -27.6348 -66.156 64.748
lradius 99.4736
lwrist 73.9369
lhand -2.39412 384.199
lfingers 7.12502
lthumb 23.2953 52.8093
rfemur -63.0198 -31.9707 25.1243
rtibia 45.6314
rfoot -19.7201 -18.4058
rtoes 9.13906
lfemur -33.3164 29.3222 -35.7101
ltibia 51.9489
lfoot -25.8365 10.9483
ltoes 6.54141
1495
root 4.13629 14.6502 3.04813 -172.117 4.32191 -184.56
lowerback 8.91038 3.75133 1.27113
upperback -4.19498 5.33603 -9.30262
thorax -8.51351 2.58108 -11.8311
lowerneck -21.0827 1.96668 -2.54696
upperneck 29.3303 -4.5683 17.7286
head 14.1853 -0.71868 6.69383
rclavicle -6.48038e-014 3.33958e-014
rhumerus -37.8492 59.9154 -88.6112
rradius 99.7789
rwrist -81.3223
rhand 14.7567 -2.34971
rfingers 7.12502
rthumb 39.6226 -27.6885
lclavicle -6.48038e-014 3.33958e-014
lhumerus -27.863 -66.1856 64.812
lradius 99.3868
lwrist 74.0424
lhand -1.56755 383.662
lfingers 7.12502
lthumb 24.0881 52.1701
rfemur -62.4819 -32.0659 25.3993
rtibia 44.1357
rfoot -20.1146 -19.1456
rtoes 8.88791
lfemur -32.9243 29.2948 -35.9203
ltibia 51.3515
lfoot -25.5339 10.8078
ltoes 6.2338
1496
root 4.13558 14.6749 3.02668 -172.106 4.32868 -184.82
lowerback 8.84101 3.72521 1.04916
upperback -4.212 5.30368 -9.47448
thorax -8.50268 2.58988 -11.8917
lowerneck -21.057 1.91506 -2.6807
upperneck 29.4232 -4.67231 17.8311
head 14.2421 -0.77627 6.75157
rclavicle -1.27222e-014 2.06736e-014
rhumerus -37.998 59.9793 -88.9342
rradius 99.8749
rwrist -81.31
rhand 14.7708 -2.27814
rfingers 7.12502
rthumb 39.6359 -27.613
lclavicle -1.27222e-014 2.06736e-014
lhumerus -28.0763 -66.2268 64.8672
lradius 99.2673
lwrist 74.1182
lhand -0.529193 383.113
lfingers 7.12502
lthumb 25.0834 51.486
rfemur -61.8596 -32.1156 25.6167
rtibia 42.7389
rfoot -20.5318 -19.9105
rtoes 8.77106
lfemur -32.5008 29.2858 -36.1139
ltibia 50.7552
lfoot -25.2267 10.6616
ltoes 5.85119
1497
root 4.13698 14.6997 3.00523 -172.108 4.34575 -185.071
lowerback 8.79149 3.7036 0.816417
upperback -4.23101 5.27601 -9.63988
thorax -8.50609 2.60089 -11.9422
lowerneck -21.0202 1.8571 -2.82111
upperneck 29.5015 -4.78187 17.9388
head 14.2915 -0.837237 6.81039
rclavicle -2.68359e-014 -1.59028e-014
rhumerus -38.1741 60.0085 -89.2854
rradius 99.9814
rwrist -81.3077
rhand 14.7993 -2.20748
rfingers 7.12502
rthumb 39.6627 -27.5344
lclavicle -2.68359e-014 -1.59028e-014
lhumerus -28.2582 -66.2807 64.893
lradius 99.1281
lwrist 74.2073
lhand 0.724551 382.604
lfingers 7.12502
lthumb 26.2842 50.8028
rfemur -61.1548 -32.1023 25.7838
rtibia 41.4403
rfoot -20.9656 -20.6792
rtoes 8.81602
lfemur -32.0645 29.2976 -36.2781
ltibia 50.1665
lfoot -24.9111 10.5141
ltoes 5.34824
1498
root 4.1406 14.7246 2.98385 -172.12 4.36649 -185.313
lowerback 8.75884 3.68414 0.574374
upperback -4.25157 5.24981 -9.79854
thorax -8.52203 2.61253 -11.9823
lowerneck -20.9689 1.79346 -2.97054
upperneck 29.5604 -4.89495 18.0546
head 14.3306 -0.900744 6.87191
rclavicle 1.47101e-014 -1.35174e-013
rhumerus -38.3743 60.0095 -89.6633
rradius 100.099
rwrist -81.3087
rhand 14.8375 -2.13544
rfingers 7.12502
rthumb 39.6986 -27.4517
lclavicle 1.47101e-014 -1.35174e-013
lhumerus -28.4164 -66.3471 64.8891
lradius 98.9928
lwrist 74.3437
lhand 2.07987 382.181
lfingers 7.12502
lthumb 27.581 50.1804
rfemur -60.3557 -32.0134 25.8794
rtibia 40.2311
rfoot -21.418 -21.4229
rtoes 9.05441
lfemur -31.6191 29.3132 -36.4112
ltibia 49.5922
lfoot -24.5893 10.3577
ltoes 4.76603
1499
root 4.14656 14.7493 2.96234 -172.134 4.39013 -185.535
lowerback 8.72844 3.66731 0.331333
upperback -4.27481 5.22691 -9.95005
thorax -8.54216 2.6256 -12.0147
lowerneck -20.9032 1.72443 -3.124
upperneck 29.5955 -5.01204 18.1787
head 14.3574 -0.96638 6.93478
rclavicle -1.17283e-014 4.77083e-015
rhumerus -38.5915 59.9857 -90.0577
rradius 100.231
rwrist -81.3095
rhand 14.8797 -2.06217
rfingers 7.12502
rthumb 39.7384 -27.3666
lclavicle -1.17283e-014 4.77083e-015
lhumerus -28.5471 -66.4289 64.8458
lradius 98.8788
lwrist 74.5452
lhand 3.39814 381.87
lfingers 7.12502
lthumb 28.8409 49.6614
rfemur -59.4575 -31.8326 25.9055
rtibia 39.0892
rfoot -21.9005 -22.1234
rtoes 9.41138
lfemur -31.1802 29.3328 -36.5067
ltibia 49.0397
lfoot -24.2532 10.183
ltoes 4.08418
1500
root 4.15471 14.7739 2.94078 -172.136 4.40853 -185.731
lowerback 8.68763 3.64971 0.0997319
upperback -4.30227 5.20424 -10.0931
thorax -8.56049 2.63798 -12.0433
lowerneck -20.8192 1.65089 -3.28362
upperneck 29.6045 -5.1311 18.3129
head 14.3698 -1.03351 7.00019
rclavicle -4.17448e-014 8.11041e-014
rhumerus -38.8208 59.9433 -90.4743
rradius 100.368
rwrist -81.3037
rhand 14.9241 -1.99147
rfingers 7.12502
rthumb 39.7802 -27.2835
lclavicle -4.17448e-014 8.11041e-014
lhumerus -28.6695 -66.5235 64.7826
lradius 98.7904
lwrist 74.7975
lhand 4.54362 381.638
lfingers 7.12502
lthumb 29.9346 49.2374
rfemur -58.4535 -31.544 25.8556
rtibia 37.977
rfoot -22.4401 -22.7803
rtoes 9.92194
lfemur -30.7603 29.3442 -36.559
ltibia 48.513
lfoot -23.9049 9.97013
ltoes 3.34755
1501
root 4.1649 14.7994 2.91897 -172.135 4.41897 -185.897
lowerback 8.63533 3.63232 -0.118041
upperback -4.3283 5.18354 -10.2274
thorax -8.56961 2.65076 -12.0683
lowerneck -20.7192 1.57213 -3.4439
upperneck 29.5875 -5.25461 18.455
head 14.3687 -1.10272 7.06572
rclavicle -3.65764e-014 -4.77083e-015
rhumerus -39.0523 59.8823 -90.9004
rradius 100.509
rwrist -81.2992
rhand 14.9919 -1.92328
rfingers 7.12502
rthumb 39.844 -27.1962
lclavicle -3.65764e-014 -4.77083e-015
lhumerus -28.7775 -66.6316 64.6985
lradius 98.7243
lwrist 75.0641
lhand 5.45712 381.449
lfingers 7.12502
lthumb 30.8059 48.887
rfemur -57.3325 -31.1364 25.7074
rtibia 36.8487
rfoot -22.9928 -23.4436
rtoes 10.3575
lfemur -30.3458 29.3468 -36.5586
ltibia 48.0099
lfoot -23.5391 9.70377
ltoes 2.56635
1502
root 4.17657 14.8268 2.89731 -172.127 4.4178 -186.031
lowerback 8.57041 3.61433 -0.313033
upperback -4.35258 5.1645 -10.3521
thorax -8.56791 2.66311 -12.0937
lowerneck -20.6022 1.48683 -3.61166
upperneck 29.5453 -5.38307 18.6076
head 14.3545 -1.17478 7.13385
rclavicle 2.3059e-014 9.54166e-015
rhumerus -39.2774 59.8064 -91.3199
rradius 100.652
rwrist -81.2961
rhand 15.1041 -1.88219
rfingers 7.12502
rthumb 39.9496 -27.1234
lclavicle 2.3059e-014 9.54166e-015
lhumerus -28.8813 -66.7468 64.6161
lradius 98.6639
lwrist 75.2964
lhand 6.14508 381.268
lfingers 7.12502
lthumb 31.4616 48.5805
rfemur -56.1069 -30.588 25.4352
rtibia 35.6617
rfoot -23.4977 -24.1762
rtoes 10.6054
lfemur -29.938 29.3301 -36.5024
ltibia 47.5296
lfoot -23.1458 9.36648
ltoes 1.77169
1503
root 4.1895 14.8569 2.87621 -172.117 4.40322 -186.141
lowerback 8.49919 3.59286 -0.493348
upperback -4.37205 5.14233 -10.4686
thorax -8.5572 2.67317 -12.1162
lowerneck -20.4786 1.3966 -3.78196
upperneck 29.4897 -5.51764 18.7661
head 14.3349 -1.24978 7.20277
rclavicle -2.48481e-014 3.18055e-014
rhumerus -39.4839 59.7197 -91.7331
rradius 100.781
rwrist -81.2968
rhand 15.259 -1.85911
rfingers 7.12502
rthumb 40.0954 -27.0563
lclavicle -2.48481e-014 3.18055e-014
lhumerus -28.9867 -66.8543 64.5457
lradius 98.5929
lwrist 75.4553
lhand 6.61634 381.027
lfingers 7.12502
lthumb 31.9104 48.2513
rfemur -54.7888 -29.8781 24.997
rtibia 34.3937
rfoot -23.9402 -25.0119
rtoes 10.7178
lfemur -29.531 29.2835 -36.3939
ltibia 47.072
lfoot -22.7126 8.93619
ltoes 1.00843
1504
root 4.20329 14.8894 2.85609 -172.108 4.3732 -186.234
lowerback 8.42824 3.56734 -0.662641
upperback -4.38107 5.11557 -10.5766
thorax -8.53572 2.68052 -12.1332
lowerneck -20.3546 1.30008 -3.95855
upperneck 29.4253 -5.65831 18.9273
head 14.3132 -1.32796 7.27254
rclavicle -1.96797e-014 -4.45278e-014
rhumerus -39.6562 59.6266 -92.1188
rradius 100.891
rwrist -81.3057
rhand 15.4795 -1.86023
rfingers 7.12502
rthumb 40.3028 -26.9942
lclavicle -1.96797e-014 -4.45278e-014
lhumerus -29.0821 -66.9381 64.4875
lradius 98.4915
lwrist 75.528
lhand 7.0283 380.713
lfingers 7.12502
lthumb 32.3026 47.8576
rfemur -53.4159 -29.0087 24.3824
rtibia 33.0504
rfoot -24.3119 -25.9629
rtoes 10.7965
lfemur -29.124 29.1999 -36.2356
ltibia 46.6481
lfoot -22.2309 8.39792
ltoes 0.278574
1505
root 4.21762 14.9241 2.83737 -172.106 4.33102 -186.319
lowerback 8.36328 3.53744 -0.827415
upperback -4.37595 5.08292 -10.6767
thorax -8.50344 2.68493 -12.1418
lowerneck -20.2424 1.19657 -4.1365
upperneck 29.3614 -5.80625 19.0817
head 14.2961 -1.40948 7.33902
rclavicle -1.12512e-013 -2.22639e-014
rhumerus -39.7805 59.5311 -92.4649
rradius 100.977
rwrist -81.3231
rhand 15.7383 -1.88327
rfingers 7.12502
rthumb 40.5462 -26.9422
lclavicle -1.12512e-013 -2.22639e-014
lhumerus -29.1729 -66.9837 64.4567
lradius 98.3458
lwrist 75.5236
lhand 7.53723 380.331
lfingers 7.12502
lthumb 32.7869 47.3763
rfemur -52.0295 -27.9777 23.5822
rtibia 31.6707
rfoot -24.6309 -27.0264
rtoes 10.9307
lfemur -28.7242 29.0799 -36.0331
ltibia 46.2787
lfoot -21.6996 7.74061
ltoes -0.444884
